<svg width="194" height="37" viewBox="0 0 194 37" fill="none" xmlns="http://www.w3.org/2000/svg">
<path d="M54.7057 11.0912V32.6645H50.642V11.0912H44V7.6381H61.3136V11.0912H54.7057Z" fill="white"/>
<path d="M64.9505 19.0402C65.3489 17.9689 65.8725 17.1769 66.5213 16.664C67.1816 16.1512 67.9954 15.8948 68.963 15.8948C69.4866 15.8948 69.9989 15.9574 70.4997 16.0828C71.012 16.2082 71.5128 16.3905 72.0023 16.6298L70.6705 19.7752C70.3517 19.5473 70.0046 19.3821 69.6289 19.2795C69.2647 19.1655 68.8549 19.1085 68.3995 19.1085C67.1702 19.1085 66.288 19.6043 65.753 20.5958C65.218 21.5759 64.9505 23.2283 64.9505 25.5532V32.6645H61.2453V16.4247H64.9505V19.0402Z" fill="white"/>
<path d="M89.35 32.6645H85.6448V30.5619C84.9846 31.4964 84.2106 32.1916 83.3227 32.6474C82.4462 33.1033 81.4388 33.3312 80.3005 33.3312C78.0125 33.3312 76.2083 32.5505 74.8879 30.9892C73.5788 29.4165 72.9243 27.2683 72.9243 24.5446C72.9243 21.9576 73.5959 19.8721 74.9391 18.288C76.2823 16.6925 78.0353 15.8948 80.1981 15.8948C81.5185 15.8948 82.6454 16.174 83.5788 16.7324C84.5236 17.2794 85.2123 18.0715 85.6448 19.1085V16.4589H89.35V32.6645ZM85.7473 24.5104C85.7473 22.8351 85.3546 21.5303 84.5692 20.5958C83.7951 19.6613 82.708 19.194 81.3079 19.194C79.9078 19.194 78.8036 19.6784 77.9954 20.647C77.1986 21.6043 76.8002 22.9377 76.8002 24.6472C76.8002 26.368 77.1873 27.6957 77.9613 28.6302C78.7353 29.5647 79.8281 30.032 81.2396 30.032C82.5714 30.032 83.6528 29.5248 84.4838 28.5105C85.3261 27.4963 85.7473 26.1629 85.7473 24.5104Z" fill="white"/>
<path d="M100.158 33.6389L91.6722 16.4589H95.7188L99.2533 24.613C99.3671 24.8637 99.5037 25.2398 99.6631 25.7412C99.8224 26.2427 99.9875 26.841 100.158 27.5361C100.272 27.0461 100.403 26.5618 100.551 26.0831C100.71 25.5931 100.898 25.103 101.114 24.613L104.632 16.4589H108.661L100.158 33.6389Z" fill="white"/>
<path d="M126.59 25.1087H113.647C113.738 26.6244 114.188 27.8097 114.996 28.6644C115.804 29.5077 116.88 29.9294 118.223 29.9294C119.418 29.9294 120.414 29.6787 121.211 29.1772C122.008 28.6758 122.702 27.8666 123.294 26.7498L126.419 28.4934C125.508 30.1231 124.381 31.3368 123.038 32.1346C121.695 32.9323 120.118 33.3312 118.308 33.3312C115.713 33.3312 113.647 32.5392 112.11 30.9551C110.574 29.371 109.805 27.2569 109.805 24.613C109.805 22.0716 110.596 19.9861 112.179 18.3564C113.772 16.7153 115.816 15.8948 118.308 15.8948C120.915 15.8948 122.947 16.6412 124.404 18.1341C125.861 19.6271 126.59 21.7183 126.59 24.4078V25.1087ZM122.748 22.6129C122.6 21.4505 122.156 20.5673 121.416 19.9633C120.676 19.3479 119.663 19.0402 118.377 19.0402C117.159 19.0402 116.18 19.3365 115.44 19.9291C114.7 20.5217 114.182 21.4163 113.886 22.6129H122.748Z" fill="white"/>
<path d="M130.636 32.6645V6.16797H134.341V32.6645H130.636Z" fill="white"/>
<path d="M139.822 32.6645V6.16797H143.528V32.6645H139.822Z" fill="white"/>
<path d="M148.513 9.45012C148.513 8.82332 148.741 8.28199 149.196 7.82614C149.663 7.37029 150.215 7.14236 150.853 7.14236C151.513 7.14236 152.059 7.36459 152.492 7.80905C152.936 8.24211 153.158 8.78913 153.158 9.45012C153.158 10.1111 152.936 10.6695 152.492 11.1254C152.048 11.5698 151.501 11.7921 150.853 11.7921C150.215 11.7921 149.663 11.5641 149.196 11.1083C148.741 10.641 148.513 10.0883 148.513 9.45012ZM149.009 32.6645V16.4589H152.714V32.6645H149.009Z" fill="white"/>
<path d="M173.254 32.6645H169.549V30.5619C168.889 31.4964 168.115 32.1916 167.227 32.6474C166.351 33.1033 165.343 33.3312 164.205 33.3312C161.917 33.3312 160.113 32.5505 158.792 30.9892C157.483 29.4165 156.829 27.2683 156.829 24.5446C156.829 21.9576 157.5 19.8721 158.843 18.288C160.187 16.6925 161.94 15.8948 164.102 15.8948C165.423 15.8948 166.55 16.174 167.483 16.7324C168.428 17.2794 169.117 18.0715 169.549 19.1085V16.4589H173.254V32.6645ZM169.652 24.5104C169.652 22.8351 169.259 21.5303 168.474 20.5958C167.699 19.6613 166.612 19.194 165.212 19.194C163.812 19.194 162.708 19.6784 161.9 20.647C161.103 21.6043 160.705 22.9377 160.705 24.6472C160.705 26.368 161.092 27.6957 161.866 28.6302C162.64 29.5647 163.732 30.032 165.144 30.032C166.476 30.032 167.557 29.5248 168.388 28.5105C169.231 27.4963 169.652 26.1629 169.652 24.5104Z" fill="white"/>
<path d="M178.377 32.6645V16.4589H181.86V19.1085C182.6 17.9917 183.471 17.1769 184.472 16.664C185.474 16.1512 186.692 15.8948 188.126 15.8948C189.333 15.8948 190.357 16.0885 191.2 16.476C192.053 16.8521 192.719 17.4162 193.197 18.1683C193.482 18.6128 193.687 19.1313 193.812 19.7239C193.937 20.3166 194 21.3536 194 22.8351V32.6645H190.261V24.3395C190.261 22.2083 189.999 20.7952 189.475 20.1C188.963 19.3934 188.047 19.0402 186.726 19.0402C185.861 19.0402 185.087 19.1997 184.404 19.5188C183.732 19.8379 183.203 20.2881 182.816 20.8693C182.543 21.2568 182.349 21.7582 182.236 22.3736C182.133 22.9776 182.082 23.9463 182.082 25.2797V32.6645H178.377Z" fill="white"/>
<path d="M11.3503 26.17L16 30.7537L20.6497 26.17L16 21.5863L11.3503 26.17ZM16 3.92478V3.93167C14.6692 3.93167 13.3384 4.43254 12.3245 5.43199L12.3199 5.4274C11.3084 6.42685 10.8003 7.74106 10.8003 9.05528C10.8003 10.3718 11.306 11.6837 12.3152 12.6786H12.3222L16 16.3019L19.6755 12.6786H19.6824C20.6986 11.6768 21.2067 10.3649 21.2067 9.05528H21.1997C21.1997 7.74336 20.6916 6.43144 19.6778 5.43199C18.657 4.42795 17.3261 3.92478 16 3.92478ZM23.3299 28.8122L17.3401 34.717L16 36.0381L14.6599 34.717L8.67007 28.8122L2.68026 34.717L0 32.0748L13.3221 18.9441L9.64661 15.3208L9.65127 15.3162C7.89162 13.5838 7.01296 11.3161 7.01296 9.05528C7.01296 6.79216 7.89162 4.52674 9.64661 2.79666V2.79207C11.4016 1.06199 13.702 0.195801 16 0.195801V0.202694C18.3027 0.202694 20.6054 1.06658 22.3557 2.79207C24.1107 4.52215 24.987 6.78986 24.987 9.05758H24.98C24.98 11.323 24.1037 13.5884 22.3511 15.3185L22.3557 15.3231L18.6803 18.9441L32 32.0748L29.3197 34.717L23.3299 28.8122Z" fill="white"/>
</svg>
